<svg xmlns="http://www.w3.org/2000/svg" 
	id="sitelogo" width="100%" height="60" viewBox="33 115 144 38" style="margin:0 auto;">
    <g transform="translate(0.36271741,0.72543458)">
    <path style="font-size:35.2778px;line-height:1.25;fill:#666666;stroke:none;stroke-width:0.264583"
    	d="m 161.48669,119.94196
c 3.12797,4.84482 6.93797,8.01982 11.43001,9.52501 -0.75259,0.61148 -1.29352,1.35231 -1.62278,2.2225 
-2.37537,-1.36407 -4.36269,-2.78694 -5.96195,-4.26861 -1.57574,-1.48167 -3.12796,-3.42195 -4.65667,-5.82084 
-1.10537,2.37537 -2.34009,4.33917 -3.70417,5.89139 -1.34055,1.55223 -3.25731,3.22204 -5.75028,5.00945 
-0.51741,-0.91722 -1.16417,-1.50518 -1.94028,-1.76389 2.98685,-1.57574 5.32695,-3.4337 7.02029,-5.57389 
1.69333,-2.14019 2.88102,-4.75075 3.56305,-7.83168 0.98778,0.49389 1.85797,0.82315 2.61056,0.98778 
0.28223,0.047 0.42334,0.16463 0.42334,0.35278 0,0.11759 -0.16463,0.2587 -0.49389,0.42333 -0.32926,0.16463 
-0.635,0.44686 -0.91723,0.84667 z
m -74.122568,17.52438
c 6.538152,0 10.266365,0.0675 12.665258,-0.1677
v 2.32834
c -3.010372,-0.23519 -7.104906,-0.30651 -12.561206,-0.30651 3.551299,4.46852 12.705946,8.72852 
17.793226,8.36366 4.53806,-0.32547 7.51335,-4.35137 9.51242,-6.58564 1.99907,-2.23426 3.33963,-5.00945 
4.02167,-8.32556 -5.85611,0 -9.79547,0.0706 -11.81806,0.21167
v -2.18722
c 2.1637,0.14111 6.19713,0.21166 12.10028,0.21166 0.23519,-1.74037 0.35278,-3.3749 0.35278,-4.90361 
0,-1.55223 -0.0235,-2.86927 -0.0706,-3.95112 h 4e-5
c -5.10352,0 -8.46667,0.0588 -10.08945,0.17639
v -2.18722
c 1.66982,0.14111 5.63269,0.21167 11.88862,0.21167 6.25593,0 10.18353,-0.0588 11.78279,-0.17639
v 2.18722
c -1.38759,-0.14111 -5.11528,-0.21167 -11.18307,-0.21167 -0.0235,3.31611 -0.22344,6.26769 -0.59972,8.85473 
8.20797,0 13.00575,-0.0588 14.39335,-0.17639
v 2.18723
c -1.6463,-0.14111 -5.09177,-0.21167 -10.3364,-0.21167
v 11.11251
c 0,0.68204 0.0823,1.17593 0.24694,1.48167 0.18815,0.32926 0.57621,0.56444 1.16417,0.70555 0.58797,0.14111 
1.62278,0.21167 3.10445,0.21167 1.50519,0 2.5988,-0.0941 3.28083,-0.28222 0.70556,-0.16463 1.59806,-0.41198 
1.9038,-0.99994 5.4635,-8.2378 10.1623,-19.01514 13.31857,-27.81431 0.87019,0.39981 1.61102,0.64676 
2.22251,0.74083 0.61148,0.0941 0.91722,0.24695 0.91722,0.45861 0,0.18815 -0.19991,0.42333 -0.59972,0.70556 
-0.39982,0.28222 -0.82316,0.84666 -1.27001,1.69333 -0.42333,0.84667 -0.97602,2.05787 -1.65805,3.63362
v 24.55335 h -2.50473
c 0.25871,-2.51649 0.38806,-4.96242 0.38806,-7.33779 V 128.4062
c -2.93339,6.54086 -5.30044,12.27193 -9.43681,18.33675 -0.3763,0.635 -0.96426,1.05833 -1.76389,1.27 
-0.79963,0.23518 -2.23426,0.35277 -4.30389,0.35277 -2.06963,0 -3.6101,-0.0705 -4.62139,-0.21166 -1.0113,-0.14111 
-1.69334,-0.39982 -2.04612,-0.77611 -0.32926,-0.3763 -0.49389,-0.96426 -0.49389,-1.76389
v -12.84113 h -2.2225
c -0.61148,3.31611 -1.81092,6.16186 -3.59833,8.53723 -1.76389,2.35185 -5.87945,8.15296 -11.9985,8.3958 
-7.102393,0.28187 -16.095789,-4.217 -19.106162,-8.66201 -1.76389,4.44501 -10.580275,8.54708 -18.666937,8.87097 
-5.800715,0.23233 -13.004251,-2.26813 -16.038142,-3.65572 -3.175002,1.59926 -6.937967,2.73991 -11.288896,3.42195 
-0.282223,-0.70556 -0.881945,-1.3876 -1.799168,-2.04611 3.974632,-0.28223 7.667042,-1.08186 11.077229,-2.39889 
-2.069631,-1.38759 -4.092224,-3.35139 -6.067781,-5.8914 h -4e-6
c -1.434631,1.85797 -3.904077,4.19806 -7.408339,7.02029 -0.376297,-0.70556 -1.058334,-1.27001 -2.046112,-1.69334 
5.009448,-3.01037 8.619543,-6.42056 10.830285,-10.23056 -2.681113,0.0235 -2.916299,0.11761 -4.938893,0.28222
v -2.18722
c 2.093149,0.16463 2.622317,0.24694 5.820838,0.24694 0.540926,-1.19945 0.9525,-2.32834 1.234723,-3.38667 
0.79963,0.39982 1.481667,0.61149 2.046112,0.635 0.564445,0.0235 0.846668,0.10585 0.846668,0.24695 0,0.14111 
-0.176389,0.30574 -0.529167,0.49389 -0.235185,0.11759 -0.705556,0.78787 -1.411112,2.01083 h 6.350004
c 3.198521,0 4.903615,-0.0823 7.23195,-0.24694
v 2.18722
c -2.116668,-0.18815 -3.821763,-0.28222 -7.23195,-0.28222 h -7.302505
c -0.729075,1.24648 -1.434631,2.30481 -2.116668,3.175 h 9.172228
c 2.634076,0 4.908383,-0.0426 6.879172,-0.10903 -1.839859,3.69145 -4.49204,5.77699 -7.337783,7.58792 2.916298,1.0113 
9.141541,3.05294 14.169265,2.77167 3.864557,-0.2162 9.461659,-1.90148 11.813512,-3.40667 2.375372,-1.48167 
4.251482,-3.25655 4.980557,-5.2321 -5.715004,0 -10.06056,0.16386 -12.388895,0.39905
v -2.32834
c 2.892779,0.23519 7.495504,0.35278 12.975323,0.35278 0.235185,-1.0113 0.518526,-2.92917 0.542045,-4.03454 
-5.950189,0 -9.716021,0.0952 -13.43195,0.40092
v -2.54
c 3.551299,0.30574 8.113894,0.45861 13.687787,0.45861
v -3.66889
c -4.774262,0 -8.125653,0.0941 -10.054173,0.28223
v -2.08139
c 1.881483,0.18815 5.232874,0.28222 10.054173,0.28222
v -3.38667
c -6.0913,0 -10.218803,0.11759 -12.382508,0.35278
v -2.25778
c 2.187224,0.21167 4.833059,0.3175 7.937505,0.3175 -0.635,-1.08185 -1.528704,-2.2813 -2.681113,-3.59834 l 1.905002,-1.19945
c 0.987778,1.43463 1.905001,3.04566 2.751668,4.83307 h 5.750282
c 1.340557,-1.71685 2.375372,-3.46899 3.104446,-5.2564 0.96426,0.70556 1.728613,1.14065 2.293058,1.30528 0.188148,0.047 
0.282222,0.15287 0.282222,0.3175 0,0.16463 -0.152871,0.3175 -0.458612,0.45861 -0.752593,0.30574 -1.775649,1.36408 
-3.069168,3.17501 3.269076,0 5.985465,-0.11759 8.149171,-0.35278
v 2.25778
c -2.751669,-0.23519 -6.596948,-0.35278 -11.53584,-0.35278
v 3.38667
c 3.857039,0 7.043801,-0.0941 9.56028,-0.28222
v 2.08139
c -2.516479,-0.18815 -5.703241,-0.28223 -9.56028,-0.28223
v 3.66889
c 5.29167,-0.0235 9.71316,-0.1764 13.264463,-0.45861
v 2.54
c -3.715933,-0.30574 -7.395238,-0.40092 -13.345427,-0.40092 0.02883,0.71813 -0.239428,3.33551 -0.393031,3.84946 z
m -41.200359,1.7373
c 1.716853,2.18723 3.657132,3.8688 5.820837,5.04473 2.323632,-1.41581 4.123474,-2.99324 5.816135,-5.06556 z
m 118.427377,-8.46667
c 0.91722,0.21167 1.68157,0.3175 2.29306,0.3175 0.61148,0 0.91722,0.0941 0.91722,0.28222 0,0.18815 -0.14111,0.38805 
-0.42333,0.59972 -0.28223,0.21167 -0.42334,0.62324 -0.42334,1.23473
v 9.63084
c 0,1.59926 0.0941,3.75121 0.28222,6.45584 h -2.64583
c 0.21167,-2.72815 0.3175,-4.8801 0.3175,-6.45584
v -6.59695
c 0,-2.23426 -0.10583,-4.05695 -0.3175,-5.46806 z
m -9.41917,0.0353
c 0.47037,0.11759 0.92898,0.18815 1.37583,0.21166 h 1.23472
c 0.3763,0 0.56445,0.0823 0.56445,0.24695 0,0.16463 -0.10583,0.3175 -0.3175,0.45861 -0.21167,0.14111 -0.36454,0.39982 
-0.45861,0.77611 -0.0706,0.3763 -0.10584,1.08186 -0.10584,2.11667 0,4.58611 -0.43509,7.80815 -1.30527,9.66612 
-0.87019,1.88148 -2.35186,3.57481 -4.44501,5.08 -0.49389,-0.79963 -1.18768,-1.36407 -2.08139,-1.69333 2.06963,-1.0113 
3.5513,-2.37538 4.445,-4.09223 0.89371,-1.74037 1.34056,-4.28037 1.34056,-7.62 0,-1.48167 -0.0823,-3.19853 -0.24694,-5.15056 z
M 37.097368,119.83613
c 2.210742,0.0941 4.421484,0.14111 6.632227,0.14111 7.549449,0 13.95825,-0.51741 19.226401,-1.55223 0.305741,0.63501 
0.834909,1.27001 1.587502,1.90501 0.235185,0.16463 0.352778,0.35277 0.352778,0.56444 0,0.18815 -0.16463,0.28223 
-0.49389,0.28223 -0.07056,0 -0.164629,-0.0118 -0.282222,-0.0353 -0.917223,-0.21167 -1.846205,-0.3175 -2.786946,-0.3175 
-0.940741,0 -2.140187,0.10583 -3.598336,0.3175 -1.434631,0.21167 -3.962873,0.42333 -7.584728,0.635 -3.598335,0.21167 
-7.53769,0.34102 -11.818063,0.38805 -0.235185,-0.91722 -0.64676,-1.69333 -1.234723,-2.32833 z
m 18.838346,7.69056
c 1.810927,-2.16371 3.127965,-4.28037 3.951114,-6.35 0.752593,0.51741 1.528704,0.85842 2.328335,1.02305 0.399815,0.0705 
0.599722,0.18815 0.599722,0.35278 0,0.14111 -0.16463,0.28222 -0.493889,0.42333 -0.329259,0.14111 -0.764352,0.49389 
-1.305279,1.05834 -0.517407,0.56444 -1.458149,1.71685 -2.822224,3.45722 3.433706,-0.0235 5.797319,-0.0823 7.090838,-0.17639
v 5.04473 h -2.08139
v -3.175 H 38.50848
v 2.99861 h -2.046113
v -4.86834
c 1.92852,0.14111 4.162781,0.21167 6.702783,0.21167 z
m -2.540002,-1.5875 -1.940279,1.34055
c -0.705556,-1.22296 -1.905001,-2.4812 -3.598336,-3.77472 l 1.587501,-1.27
c 1.552223,1.15241 2.869261,2.38713 3.951114,3.70417 z
 m -8.678339,0.24694 -1.728612,1.19945
c -0.79963,-1.34056 -1.857964,-2.55177 -3.175002,-3.63362 l 1.587501,-1.16416
c 1.081853,0.91722 2.187224,2.11666 3.316113,3.59833 z" />
	<path 
		 style="font-size:35.2778px;line-height:1.25;fill:#ff0000;stroke:#ff0000;stroke-width:0.2;stroke-miterlimit:4;stroke-dasharray:none"
		 d="m 58.193493,127.49141
c 1.364075,-1.74037 2.304817,-2.89278 2.822224,-3.45722 0.540927,-0.56445 0.97602,-0.91723 1.305279,-1.05834 0.329259,-0.14111 
0.493889,-0.28222 0.493889,-0.42333 0,-0.16463 -0.199907,-0.28228 -0.599722,-0.35278 -0.799631,-0.16463 -1.575742,-0.50564 
-2.328335,-1.02305 -0.823149,2.06963 -2.140187,4.18629 -3.951114,6.35 z
m -4.797781,-1.55222 -1.940279,1.34055
c -0.705556,-1.22296 -1.905001,-2.4812 -3.598336,-3.77472 l 1.587501,-1.27
c 1.552223,1.15241 2.869261,2.38713 3.951114,3.70417 z
m -8.678339,0.24694 -1.728612,1.19945
c -0.79963,-1.34056 -1.857964,-2.55177 -3.175002,-3.63362 l 1.587501,-1.16416
c 1.081853,0.91722 2.187224,2.11666 3.316113,3.59833 z" />
</g>
</svg>
